<svg xmlns="http://www.w3.org/2000/svg" xmlns:xlink="http://www.w3.org/1999/xlink" width="60" height="60" viewBox="0 0 60 60">
  <defs>
    <clipPath id="clip-path">
      <rect width="60" height="60" fill="none"/>
    </clipPath>
    <linearGradient id="linear-gradient" x1="0.5" x2="0.5" y2="1" gradientUnits="objectBoundingBox">
      <stop offset="0" stop-color="#f66f71"/>
      <stop offset="1" stop-color="#fe9f92"/>
    </linearGradient>
  </defs>
  <g id="Types_Psychic" data-name="Types/Psychic" clip-path="url(#clip-path)">
    <g id="Group" transform="translate(15 15)">
      <rect id="Rectangle" width="30" height="30" rx="15" fill="url(#linear-gradient)"/>
      <path id="Path_9" data-name="Path 9" d="M11.975,11.626s-1.765,1.416-5.278.83C4.031,12.012,2.61,9.074,2.61,7.494c0-3.744,2.771-4.6,4.645-4.6a3.3,3.3,0,0,1,3.1,3.241A2.545,2.545,0,0,1,7.793,8.79a1.885,1.885,0,0,1-2.018-2.1A1.374,1.374,0,0,1,7.33,5.334c.741,0,1,.633,1,1.177a.716.716,0,0,1-.774.739c-.352,0-.387-.178-.522-.364S7.2,5.992,6.7,5.992s-.6.812-.6.812a1.714,1.714,0,0,0,1.7,1.541,1.949,1.949,0,0,0,2.02-2.353,2.782,2.782,0,0,0-3.3-2.138C4.541,4.1,3.736,6.094,4.091,8.222S6.995,11.583,9,11.139s4-1.895,4-5.574S9.814-.325,6.014.039-.144,3.725.007,7.717s3.938,6.165,7.141,6.277a7.574,7.574,0,0,0,5.166-1.742s.442-.394.268-.7S11.975,11.626,11.975,11.626Z" transform="translate(8.5 8)" fill="#fff"/>
    </g>
  </g>
</svg>
