<svg xmlns="http://www.w3.org/2000/svg" xmlns:xlink="http://www.w3.org/1999/xlink" width="60" height="60" viewBox="0 0 60 60">
  <defs>
    <clipPath id="clip-path">
      <rect width="60" height="60" fill="none"/>
    </clipPath>
    <linearGradient id="linear-gradient" x1="0.5" x2="0.5" y2="0.987" gradientUnits="objectBoundingBox">
      <stop offset="0" stop-color="#0c69c8"/>
      <stop offset="1" stop-color="#0180c7"/>
    </linearGradient>
  </defs>
  <g id="Types_Dragon" data-name="Types/Dragon" clip-path="url(#clip-path)">
    <g id="Group" transform="translate(15 15)">
      <rect id="Rectangle" width="30" height="30" rx="15" fill="url(#linear-gradient)"/>
      <path id="Oval_8" data-name="Oval 8" d="M7.464,16a6.571,6.571,0,0,1-3.927-1.282A6.446,6.446,0,0,1,1.209,11.47a2.586,2.586,0,0,1-.049-.259c-.074-.54-.069-.848.013-.941a.084.084,0,0,1,.067-.032.145.145,0,0,1,.045.009,1.574,1.574,0,0,1,.273.529,9.408,9.408,0,0,0,.419.9,2.568,2.568,0,0,0,.734.885c.008,0,.01-.005.011-.009a1.149,1.149,0,0,0-.194-.353c-.081-.124-.175-.269-.255-.412-.163-.291-.233-.512-.193-.607a.086.086,0,0,1,.06-.052l.022,0c.129,0,.344.267.593.576l.011.013c.127.158.258.321.4.475a2.425,2.425,0,0,0,.832.655.023.023,0,0,0,.012,0,.024.024,0,0,0,.013-.015c.013-.049-.076-.181-.188-.347-.067-.1-.131-.2-.186-.291l-.008-.014c-.141-.24-.253-.429-.137-.5a.117.117,0,0,1,.061-.016c.136,0,.352.186.566.387l.087.083.011.011c.166.158.31.294.375.294a.033.033,0,0,0,.022-.007c.049-.041.016-.145-.016-.245s-.071-.225-.028-.294a.144.144,0,0,1,.111-.059H4.7a.828.828,0,0,1,.3.13l.01.005c.1.057.224.123.37.193a2.726,2.726,0,0,0,1.634.536,2.678,2.678,0,0,0,2.7-2.645A2.641,2.641,0,0,0,8.055,7.607a.843.843,0,0,1-.274.358.956.956,0,0,1-.476.182c-.078.013-.175.029-.316.057C6.477,8.308.717,9.629.659,9.643c-.008,0-.049,0-.107,0a.76.76,0,0,1-.5-.146c-.177-.18.321-1.077.326-1.086a32.155,32.155,0,0,1,2-3.238c.058-.057.245-.193.527-.4.616-.45,1.647-1.2,2.706-2.125A17.348,17.348,0,0,0,7.517.734,2.884,2.884,0,0,0,7.71.451C7.861.209,7.992,0,8.276,0a.407.407,0,0,1,.319.125c.177.2.133.59.107.825,0,.024-.005.046-.007.066a15.076,15.076,0,0,1-.626,1.746,3.032,3.032,0,0,0-.087.472A6.574,6.574,0,0,1,12.252,5.26,6.293,6.293,0,0,1,14,9.608,6.473,6.473,0,0,1,7.464,16ZM2.843,7.256s.035,0,.1,0a2.138,2.138,0,0,0,1.4-.446,1.74,1.74,0,0,0,.409-1.361,11.141,11.141,0,0,0-1.07.8,10.373,10.373,0,0,0-.829,1Z" transform="translate(8 7)" fill="#fff"/>
    </g>
  </g>
</svg>
