<svg xmlns="http://www.w3.org/2000/svg" xmlns:xlink="http://www.w3.org/1999/xlink" width="60" height="60" viewBox="0 0 60 60">
  <defs>
    <clipPath id="clip-path">
      <rect width="60" height="60" fill="none"/>
    </clipPath>
    <linearGradient id="linear-gradient" x1="0.5" x2="0.5" y2="1" gradientUnits="objectBoundingBox">
      <stop offset="0" stop-color="#92bc2c"/>
      <stop offset="1" stop-color="#afc836"/>
    </linearGradient>
  </defs>
  <g id="Types_Bug" data-name="Types/Bug" clip-path="url(#clip-path)">
    <g id="Group" transform="translate(15 15)">
      <rect id="Rectangle" width="30" height="30" rx="15" fill="url(#linear-gradient)"/>
      <path id="Path_3" data-name="Path 3" d="M10.023,16.154h0A9.824,9.824,0,0,1,7.657,11.8a10.318,10.318,0,0,1,.69-5.133A9.555,9.555,0,0,0,10.2,5.81a11.179,11.179,0,0,0,1.5-1.534A7.525,7.525,0,0,1,14,9.963a6.8,6.8,0,0,1-1.988,4.545,9.97,9.97,0,0,1-1.988,1.646Zm-6.048,0a9.952,9.952,0,0,1-1.987-1.646A6.793,6.793,0,0,1,0,9.963,7.456,7.456,0,0,1,2.3,4.276,11.219,11.219,0,0,0,3.8,5.81a9.686,9.686,0,0,0,1.858.86A10.317,10.317,0,0,1,6.342,11.8a9.824,9.824,0,0,1-2.365,4.351h0ZM3.336,3.6l.005,0a8.42,8.42,0,0,1,1.391-.659L3.407,1.352A.75.75,0,0,1,4.557.388L6.249,2.4a.754.754,0,0,1,.087.128A5.173,5.173,0,0,1,6.943,2.5a6.453,6.453,0,0,1,.855.06.759.759,0,0,1,.047-.077L9.355.321a.75.75,0,1,1,1.229.86L9.367,2.918a10.055,10.055,0,0,1,1.329.524C10.553,3.677,9.257,5.7,7.151,5.7A5.5,5.5,0,0,1,3.336,3.6Z" transform="translate(8 7)" fill="#fff"/>
    </g>
  </g>
</svg>
