<svg xmlns="http://www.w3.org/2000/svg" xmlns:xlink="http://www.w3.org/1999/xlink" width="60" height="60" viewBox="0 0 60 60">
  <defs>
    <clipPath id="clip-path">
      <rect width="60" height="60" fill="none"/>
    </clipPath>
    <linearGradient id="linear-gradient" x1="0.5" x2="0.5" y2="1" gradientUnits="objectBoundingBox">
      <stop offset="0" stop-color="#f44336"/>
      <stop offset="1" stop-color="#f44336"/>
    </linearGradient>
  </defs>
  <g id="Types_Fire" data-name="Types/Fire" clip-path="url(#clip-path)">
    <g id="Group" transform="translate(15 15)">
      <rect id="Rectangle" width="30" height="30" rx="15" fill="url(#linear-gradient)"/>
      <path id="Path_2" data-name="Path 2" d="M5.3,14.814a4.954,4.954,0,0,1-3.671-1.59A5.32,5.32,0,0,1,.2,8.723a7.343,7.343,0,0,1,.694-2.3A3.539,3.539,0,0,0,.8,7.2a1.394,1.394,0,0,0,.226.732.094.094,0,0,1,.01-.024A10.608,10.608,0,0,1,2.224,5.935a10.117,10.117,0,0,1,1.653-1.37,6.483,6.483,0,0,0,1-.8C6.053,2.448,5.341.024,5.333,0h0s0,0,.008.006A6.172,6.172,0,0,1,7.055,2.72a5.078,5.078,0,0,1-.031,1.844c-.09.65-.168,1.21.082,1.5a.7.7,0,0,0,.557.2l.087,0A.728.728,0,0,0,8.4,5.915c.372-.676-.44-2.133-.449-2.148h0a.037.037,0,0,1,.012.006A8.1,8.1,0,0,1,9.692,5.106a4.891,4.891,0,0,1,1.54,3.781A4.161,4.161,0,0,1,9.2,12.106a6.194,6.194,0,0,1-1.837.777A4,4,0,0,0,8.485,11.44,5.568,5.568,0,0,0,8.314,9.4a.109.109,0,0,1,0,.016,4.048,4.048,0,0,1-.658,1.517,2.123,2.123,0,0,1-1.368.664,1.458,1.458,0,0,0,.834-1.318,1.494,1.494,0,0,0-2.987,0,1.436,1.436,0,0,0,.14.621,1.793,1.793,0,0,1-.6-1.071c-.005.023-.551,2.41,1.012,3.517a3.666,3.666,0,0,0,2.139.545A9.846,9.846,0,0,0,9.382,13.5s0,0-.007.007A7.97,7.97,0,0,1,5.3,14.814Z" transform="translate(9 7)" fill="#fff"/>
    </g>
  </g>
</svg>
