<svg xmlns="http://www.w3.org/2000/svg" xmlns:xlink="http://www.w3.org/1999/xlink" width="60" height="60" viewBox="0 0 60 60">
  <defs>
    <clipPath id="clip-path">
      <rect width="60" height="60" fill="none"/>
    </clipPath>
  </defs>
  <g id="Types_Water" data-name="Types/Water" clip-path="url(#clip-path)">
    <g id="Group" transform="translate(15 15)">
      <path id="Oval_5" data-name="Oval 5" d="M5,15a5,5,0,0,1-5-4.982L4.549.518a.5.5,0,0,1,.9,0L10,10.019A5,5,0,0,1,5,15ZM2.064,10.038c0,.028-.406,2.816,2.1,3.365a4.212,4.212,0,0,0,.9.1,4.1,4.1,0,0,0,3.078-1.474l-.01,0a7.435,7.435,0,0,1-2.39.442,4.223,4.223,0,0,1-1.311-.192A4.284,4.284,0,0,1,2.064,10.038Z" transform="translate(10 8)" fill="#fff"/>
    </g>
  </g>
</svg>
